<?xml version="1.0" encoding="UTF-8"?>
<svg version="1.1" xmlns="http://www.w3.org/2000/svg" width="1280" height="1280">
<path d="M0 0 C13.4855238 9.95092074 23.24320669 22.78367932 26.8671875 39.40625 C29.74804255 59.64366151 23.32929499 75.77597566 14.58984375 93.6015625 C13.73907151 95.36133607 12.88948037 97.12168109 12.04101562 98.88256836 C9.89685345 103.32509926 7.7379605 107.76028 5.57446289 112.19342041 C3.68053709 116.07930149 1.79918463 119.97123555 -0.08203125 123.86328125 C-2.74607884 129.37167816 -5.41719569 134.87657671 -8.09375 140.37890625 C-11.16297104 146.69067327 -14.20208617 153.01637956 -17.22265625 159.3515625 C-21.82413713 169.00227837 -26.47788075 178.62712393 -31.13995361 188.24865723 C-35.14840826 196.52231622 -39.14082784 204.803047 -43.09765625 213.1015625 C-47.57785772 222.49640922 -52.11403596 231.86350384 -56.66015625 241.2265625 C-62.59562038 253.45181583 -68.48859451 265.6963209 -74.34033203 277.96191406 C-81.58467631 293.13671143 -88.8879675 308.28277512 -96.22265625 323.4140625 C-96.5722641 324.13551453 -96.92187195 324.85696655 -97.28207397 325.60028076 C-98.28393824 327.66734027 -99.28638307 329.73411705 -100.2890625 331.80078125 C-100.58545624 332.41226517 -100.88184998 333.02374908 -101.18722534 333.65376282 C-102.98561352 337.35795407 -104.81619192 341.04488947 -106.66015625 344.7265625 C-105.75830093 344.73686996 -104.85644562 344.74717743 -103.92726135 344.75779724 C-95.35299178 344.85650934 -86.77877902 344.95911573 -78.20460606 345.06590176 C-73.79845358 345.12064553 -69.3922942 345.17397743 -64.98608398 345.22387695 C-60.71958142 345.2722497 -56.45314323 345.3245996 -52.18671989 345.37950325 C-50.57358377 345.39960256 -48.96043026 345.41836087 -47.34726143 345.43563652 C-36.42438216 345.55379834 -25.55925821 345.99269995 -14.66015625 346.7265625 C-14.36524796 345.81299484 -14.07033966 344.89942719 -13.76649475 343.95817566 C-12.93523071 341.5300546 -12.08443198 339.31330776 -10.95874023 337.02075195 C-10.46963165 336.01751137 -10.46963165 336.01751137 -9.97064209 334.9940033 C-9.44376801 333.92769432 -9.44376801 333.92769432 -8.90625 332.83984375 C-8.53397278 332.07865738 -8.16169556 331.31747101 -7.77813721 330.53321838 C-6.55471099 328.03348415 -5.32614369 325.53631274 -4.09765625 323.0390625 C-3.23306314 321.2744554 -2.36889284 319.50964108 -1.50512695 317.74462891 C0.26156857 314.13494581 2.02975837 310.5260005 3.79882812 306.91748047 C7.09864471 300.18187948 10.37163538 293.43334675 13.64294434 286.68386841 C20.13381028 273.29375909 26.66385443 259.92302561 33.20553589 246.55767822 C42.69908443 227.16707313 42.69908443 227.16707313 52.08984375 207.7265625 C52.54520508 206.77894043 53.00056641 205.83131836 53.46972656 204.85498047 C55.73879521 200.11949635 57.97218342 195.36969313 60.171875 190.6015625 C60.63174805 189.61285156 61.09162109 188.62414062 61.56542969 187.60546875 C62.43058331 185.74244984 63.28728738 183.87547382 64.13378906 182.00390625 C64.51245117 181.19050781 64.89111328 180.37710938 65.28125 179.5390625 C65.77153687 178.46591797 65.77153687 178.46591797 66.27172852 177.37109375 C67.33984375 175.7265625 67.33984375 175.7265625 70.33984375 174.7265625 C81.75152999 198.33011401 93.111031 221.95497494 104.2527771 245.68740845 C109.31371534 256.46474501 114.44613601 267.20409965 119.63427734 277.92089844 C123.28664138 285.48546964 126.8312477 293.09443311 130.33984375 300.7265625 C136.4225267 313.9406996 142.81858769 326.99494832 149.22714233 340.05340576 C155.17932072 352.18715284 161.02243922 364.35350625 166.66015625 376.63671875 C170.76642652 385.56016396 175.03419338 394.39825535 179.33984375 403.2265625 C184.21477853 413.22247831 189.00810611 423.24560662 193.65234375 433.3515625 C199.2742188 445.57736167 205.1567344 457.66622109 211.07595825 469.75003052 C216.91475195 481.67482168 222.62624374 493.64540821 228.16064453 505.71459961 C231.37084815 512.70384351 234.72146545 519.58100097 238.36328125 526.35546875 C239.33984375 528.7265625 239.33984375 528.7265625 238.33984375 531.7265625 C225.35327882 531.74970435 212.36671877 531.76748703 199.38013744 531.77837467 C193.3503414 531.78359945 187.32055943 531.79068979 181.29077148 531.80200195 C175.4747383 531.81284516 169.65871868 531.8188424 163.84267616 531.82143974 C161.62065734 531.82329139 159.39863928 531.82690706 157.17662621 531.83229256 C154.07110346 531.83952195 150.96563719 531.84055263 147.86010742 531.84008789 C146.9358194 531.84368317 146.01153137 531.84727844 145.05923462 531.85098267 C143.79092552 531.84892067 143.79092552 531.84892067 142.49699402 531.84681702 C141.39499051 531.84819971 141.39499051 531.84819971 140.2707243 531.84961033 C138.33984375 531.7265625 138.33984375 531.7265625 135.33984375 530.7265625 C133.91198748 528.2543281 132.66437946 525.83462202 131.453125 523.2578125 C130.89164261 522.09504288 130.89164261 522.09504288 130.31881714 520.90878296 C129.08711107 518.35250924 127.86977796 515.78965987 126.65234375 513.2265625 C125.80282392 511.45672101 124.95231006 509.68735632 124.10083008 507.91845703 C122.35841761 504.29585106 120.62116425 500.67083894 118.88769531 497.04394531 C116.52388934 492.10315016 114.13661982 487.17411025 111.73828125 482.25 C111.19849892 481.14117462 111.19849892 481.14117462 110.64781189 480.00994873 C109.94532533 478.56706202 109.24276679 477.12421035 108.54013062 475.68139648 C106.94381706 472.40324655 105.34882463 469.12447659 103.7578125 465.84375 C103.23985107 464.77753418 102.72188965 463.71131836 102.18823242 462.61279297 C99.52221706 457.00750536 96.94093914 451.36226919 94.33984375 445.7265625 C13.15984375 445.3965625 -68.02015625 445.0665625 -151.66015625 444.7265625 C-159.79837506 460.16163978 -159.79837506 460.16163978 -167.66015625 475.7265625 C-171.64175356 483.74613371 -175.71544146 491.70447766 -179.92382812 499.60717773 C-183.79010038 506.8970372 -187.45603477 514.28395172 -191.08227539 521.69580078 C-191.52047607 522.58380371 -191.95867676 523.47180664 -192.41015625 524.38671875 C-192.796875 525.17699463 -193.18359375 525.96727051 -193.58203125 526.78149414 C-194.66015625 528.7265625 -194.66015625 528.7265625 -196.66015625 530.7265625 C-198.56169319 530.98827553 -198.56169319 530.98827553 -200.92483521 531.0050354 C-202.26680969 531.02178062 -202.26680969 531.02178062 -203.63589478 531.03886414 C-204.61988251 531.04102432 -205.60387024 531.04318451 -206.61767578 531.04541016 C-207.65184631 531.05545578 -208.68601685 531.0655014 -209.75152588 531.07585144 C-213.18200099 531.10683029 -216.61239756 531.12375939 -220.04296875 531.140625 C-222.41666344 531.15932482 -224.79035141 531.17889732 -227.16403198 531.1993103 C-233.4210006 531.25076278 -239.6779908 531.2903182 -245.93505859 531.32745361 C-252.31613562 531.36741121 -258.69712186 531.41854105 -265.078125 531.46875 C-277.60540394 531.56566451 -290.13273486 531.65039859 -302.66015625 531.7265625 C-303.66015625 528.7265625 -303.66015625 528.7265625 -302.4934082 525.90258789 C-301.86719181 524.68397986 -301.23030545 523.47082687 -300.5859375 522.26171875 C-299.83603053 520.80912839 -299.08690464 519.35613463 -298.33837891 517.90283203 C-297.91429749 517.08647278 -297.49021606 516.27011353 -297.05328369 515.42901611 C-294.36706967 510.21817282 -291.76138897 504.96662828 -289.140625 499.72265625 C-288.24508091 497.93455879 -287.34953346 496.14646299 -286.45366096 494.35853004 C-285.5348781 492.52486035 -284.61643278 490.69102183 -283.69799805 488.85717773 C-282.47076114 486.40715425 -281.24252183 483.95763722 -280.01342773 481.50854492 C-273.33097376 468.19171399 -266.71303047 454.85012859 -260.31608582 441.39317322 C-257.01875011 434.45768122 -253.62955067 427.57786828 -250.16015625 420.7265625 C-246.15427039 412.76690756 -242.22325832 404.78029627 -238.41015625 396.7265625 C-233.79727825 386.98979905 -228.99591744 377.35381197 -224.16015625 367.7265625 C-219.40801746 358.26567873 -214.68608274 348.79847535 -210.16015625 339.2265625 C-205.63422949 329.65464908 -200.91227382 320.18745703 -196.16015625 310.7265625 C-191.42894379 301.30725944 -186.72680347 291.88228153 -182.22265625 282.3515625 C-177.14041591 271.59944779 -171.80426724 260.97914989 -166.46768188 250.35186768 C-161.42033004 240.29667258 -156.45211654 230.21372163 -151.640625 220.04296875 C-147.57332384 211.47302838 -143.32537543 202.9958055 -139.04394531 194.53125 C-135.41379633 187.32736797 -131.90668807 180.07341862 -128.44140625 172.7890625 C-122.37698691 160.05258122 -116.05670413 147.45029738 -109.71240234 134.8515625 C-102.88514108 121.2845985 -96.21641351 107.65307974 -89.71447754 93.92700195 C-89.01595727 92.46914317 -88.2911007 91.02359189 -87.53967285 89.59228516 C-86.37501285 87.12168648 -86.3723401 85.43370283 -86.66015625 82.7265625 C-87.62247364 80.42222028 -87.62247364 80.42222028 -88.97265625 78.1640625 C-95.52221268 65.47429692 -96.91627472 49.84813756 -93.59765625 35.9140625 C-89.79668799 24.52883663 -84.28756099 15.12732788 -75.66015625 6.7265625 C-74.75716797 5.77523438 -74.75716797 5.77523438 -73.8359375 4.8046875 C-54.62817956 -14.02808167 -21.68019382 -14.06867819 0 0 Z M-54.66015625 22.7265625 C-55.27246094 23.10941406 -55.88476562 23.49226563 -56.515625 23.88671875 C-62.76955129 28.3721826 -66.69087995 36.47276033 -68.66015625 43.7265625 C-69.81754995 55.83882213 -68.03827193 65.39664884 -60.34375 74.9140625 C-54.01969448 81.72232644 -46.13611292 85.92159023 -36.86328125 87.07421875 C-25.78124098 87.43422853 -17.03303454 83.92607896 -8.66015625 76.7265625 C-1.78388476 69.74699938 1.49405834 60.94313252 1.83984375 51.2265625 C1.42788173 40.67783815 -1.97448836 33.45742584 -9.2890625 25.890625 C-17.91011302 18.0223186 -26.83701472 15.97746818 -38.3125 16.27734375 C-44.59077937 16.71236333 -49.48077012 19.281899 -54.66015625 22.7265625 Z " fill="#A063CA" transform="translate(646.66015625,378.2734375)"/>
<path d="M0 0 C3.76047033 -0.01102792 7.52094227 -0.02090036 11.28141785 -0.02996445 C12.66762863 -0.03343444 14.0538388 -0.03716142 15.44004822 -0.04114151 C23.78371624 -0.06476178 32.12641586 -0.06441243 40.4699707 -0.01098633 C43.54247491 0.00687189 46.61498422 0.02333042 49.6875 0.0390625 C50.44703161 0.04328783 51.20656322 0.04751316 51.98911095 0.05186653 C61.06324933 0.0951105 70.0695074 -0.08055884 79.125 -0.7265625 C100.23649671 -2.04696322 100.23649671 -2.04696322 106.75439453 3.22998047 C111.59233141 8.91826307 114.64795179 15.31518335 117.47859192 22.15141296 C120.19637281 28.70786859 123.72103057 34.64675686 127.40792847 40.69656372 C129.23122931 43.70754495 130.99671634 46.75209289 132.76953125 49.79296875 C136.88203853 56.81542986 141.0325482 63.8150839 145.1875 70.8125 C150.81162665 80.28503895 156.38796156 89.78394068 161.92919922 99.30517578 C166.21763734 106.67018155 170.54364197 114.01217992 174.88647461 121.34521484 C178.029134 126.65524189 181.15959194 131.9721984 184.27734375 137.296875 C184.82888626 138.23877686 184.82888626 138.23877686 185.39157104 139.19970703 C186.87994815 141.74195725 188.36807597 144.28435211 189.85510254 146.82739258 C194.70127368 155.11451329 199.59465891 163.36826465 204.62890625 171.54296875 C206 174 206 174 206 176 C206.83249268 176.11593506 207.66498535 176.23187012 208.52270508 176.35131836 C211.61482386 176.78330396 214.70657333 177.217821 217.7980957 177.65405273 C219.13551844 177.84224178 220.47308314 178.02942477 221.81079102 178.21557617 C223.73490946 178.48350949 225.65847889 178.75537619 227.58203125 179.02734375 C228.73936768 179.18968506 229.8967041 179.35202637 231.08911133 179.51928711 C234 180 234 180 237 181 C238.17578125 182.87573242 238.17578125 182.87573242 239.3125 185.35546875 C239.74328857 186.2777124 240.17407715 187.19995605 240.61791992 188.15014648 C241.30204956 189.65363647 241.30204956 189.65363647 242 191.1875 C242.9728582 193.28757283 243.94818662 195.38650282 244.92578125 197.484375 C245.67915771 199.10182617 245.67915771 199.10182617 246.44775391 200.75195312 C247.96032584 203.91698254 249.54372145 207.03162399 251.16796875 210.140625 C251.67392578 211.11491455 252.17988281 212.0892041 252.70117188 213.09301758 C253.67061638 214.94830634 254.65187674 216.79748283 255.64648438 218.6394043 C256.08669922 219.48929932 256.52691406 220.33919434 256.98046875 221.21484375 C257.37129639 221.94823975 257.76212402 222.68163574 258.16479492 223.43725586 C260.27523424 229.9129301 258.73695471 236.20569552 257.06640625 242.5859375 C256.86901352 243.36893219 256.67162079 244.15192688 256.46824646 244.95864868 C256.05313553 246.5983896 255.63356608 248.23700778 255.2097168 249.87451172 C254.55947129 252.38670126 253.92212427 254.90189047 253.28710938 257.41796875 C252.88094235 259.01581176 252.4740667 260.61347485 252.06640625 262.2109375 C251.87470352 262.96297455 251.68300079 263.7150116 251.48548889 264.48983765 C250.11847967 269.76304067 250.11847967 269.76304067 249 272 C245.18788097 272.1958691 241.37529466 272.38029565 237.5625 272.5625 C236.47388672 272.61857422 235.38527344 272.67464844 234.26367188 272.73242188 C233.22919922 272.78076172 232.19472656 272.82910156 231.12890625 272.87890625 C230.17056885 272.9260376 229.21223145 272.97316895 228.22485352 273.02172852 C226 273 226 273 225 272 C224.89139679 269.03821603 224.84072907 266.09165616 224.81640625 263.12890625 C224.77674805 261.25449913 224.73433176 259.38014876 224.68945312 257.50585938 C224.61984575 254.56124923 224.56267019 251.62002035 224.55395508 248.67456055 C224.48571398 233.61130293 221.47588827 223.49696222 213 211 C208.98389666 210.97482674 204.96782537 210.95692245 200.95166016 210.94506836 C198.93260071 210.93770992 196.91356303 210.92498838 194.89453125 210.91210938 C186.20450174 210.89070536 177.65625944 211.25150106 169 212 C168.29826917 216.22693311 167.61611426 220.4567992 166.9375 224.6875 C166.63875977 226.48477539 166.63875977 226.48477539 166.33398438 228.31835938 C166.05844727 230.05375977 166.05844727 230.05375977 165.77734375 231.82421875 C165.60452881 232.88729248 165.43171387 233.95036621 165.25366211 235.0456543 C164.86128243 239.61561239 165.41591873 242.77397289 168.37109375 246.3125 C168.85787598 246.90627441 169.3446582 247.50004883 169.84619141 248.11181641 C170.37132324 248.73491699 170.89645508 249.35801758 171.4375 250 C172.53881064 251.34028356 173.63905433 252.68144446 174.73828125 254.0234375 C175.56513428 255.02648926 175.56513428 255.02648926 176.40869141 256.04980469 C178.70541389 258.86450539 180.92138014 261.73717743 183.125 264.625 C183.52976562 265.15359619 183.93453125 265.68219238 184.3515625 266.22680664 C185.56875027 267.81707413 186.78437885 269.40853463 188 271 C189.64400902 273.14723698 191.29036622 275.29265946 192.9375 277.4375 C193.34033203 277.96335693 193.74316406 278.48921387 194.15820312 279.03100586 C196.43593916 281.99647064 198.74034045 284.93783998 201.07421875 287.859375 C201.58283447 288.49818604 202.0914502 289.13699707 202.61547852 289.79516602 C203.60527843 291.03597777 204.59912615 292.2735737 205.59741211 293.50756836 C209 297.77790553 209 297.77790553 209 300 C204.81284871 300.33781115 200.62523015 300.6694485 196.4375 301 C194.66536133 301.14308594 194.66536133 301.14308594 192.85742188 301.2890625 C190.57101215 301.46838875 188.2837097 301.63674349 185.99560547 301.79296875 C184.25288458 301.91341107 182.51088121 302.05235577 180.77392578 302.23828125 C177.40044286 302.49433308 176.1475607 302.11732099 173.46484375 299.984375 C172.65144531 298.99953125 171.83804688 298.0146875 171 297 C170.51418457 296.42830078 170.02836914 295.85660156 169.52783203 295.26757812 C167.84846516 293.2806633 166.20362356 291.26859818 164.5625 289.25 C163.32039351 287.73170456 162.07820357 286.21347738 160.8359375 284.6953125 C160.20268555 283.91961914 159.56943359 283.14392578 158.91699219 282.34472656 C155.85174813 278.59554114 152.76877323 274.86101221 149.6875 271.125 C139.68529889 258.98499768 139.68529889 258.98499768 135.84765625 254.21484375 C134.08591625 252.03370747 134.08591625 252.03370747 132.30859375 250.31640625 C130.875 248.875 130.875 248.875 129 246 C129.2326772 237.03727416 132.42916324 228.78654535 135.2097168 220.34838867 C135.83567573 218.43898703 136.45116352 216.52616274 137.06640625 214.61328125 C137.43709229 213.48704346 137.80777832 212.36080566 138.18969727 211.20043945 C139.45130675 206.21748111 139.63140753 203.18371865 137.19140625 198.609375 C136.32861106 197.31381919 135.45106773 196.02801712 134.5625 194.75 C133.54251113 193.22947354 132.52301176 191.70861865 131.50390625 190.1875 C130.94203613 189.35863281 130.38016602 188.52976562 129.80126953 187.67578125 C126.47726862 182.73798645 123.24856519 177.73759361 120 172.75 C118.52929626 170.50087249 117.05808152 168.25209021 115.5859375 166.00390625 C115.2115303 165.43201065 114.83712311 164.86011505 114.45137024 164.27088928 C113.30102328 162.51385427 112.15053984 160.75690871 111 159 C110.61847778 158.41740417 110.23695557 157.83480835 109.84387207 157.23455811 C107.10467529 153.05192548 104.36497165 148.86962505 101.625 144.6875 C101.23362854 144.09013031 100.84225708 143.49276062 100.43902588 142.87728882 C96.35184964 136.63906108 92.26374853 130.40144271 88.17288208 124.16563416 C86.47973306 121.58456615 84.78705565 119.00318904 83.09442139 116.42178345 C82.30042683 115.21115934 81.50620818 114.00068217 80.71173096 112.79037476 C79.96335026 111.65027836 79.21679355 110.50898237 78.47215271 109.36643982 C77.37053298 107.69647772 76.23541113 106.04877638 75.1003418 104.40136719 C73.50754222 101.82193168 72.51298549 99.86371592 71.50317383 97.09082031 C69.77059295 92.82417101 68.04760368 89.42869562 64 87 C54.95144791 84.65400429 45.3095484 85.31426221 36.03186035 85.57513428 C32.53259486 85.65845012 29.03331032 85.66161261 25.53320312 85.671875 C18.68671555 85.70358739 11.84424278 85.82336263 5 86 C5.31547794 84.56312759 5.63200584 83.12648568 5.94897461 81.68994141 C6.21320473 80.48985947 6.21320473 80.48985947 6.48277283 79.26553345 C7.29040679 75.7279742 8.30678912 72.25740128 9.31640625 68.7734375 C14.44150001 47.98019996 11.14983874 24.665374 1.34375 5.81640625 C0 3 0 3 0 0 Z " fill="#A063CA" transform="translate(692,383)"/>
<path d="M0 0 C1.49192194 0.00138269 1.49192194 0.00138269 3.01398373 0.00279331 C4.15126919 0.00141865 5.28855465 0.00004398 6.46030331 -0.00137234 C7.71905773 0.00222294 8.97781216 0.00581821 10.27471066 0.00952244 C11.59158871 0.00937641 12.90846676 0.00923038 14.26525021 0.00907993 C17.88698982 0.00879196 21.5086966 0.01468859 25.13042855 0.02165389 C28.91142598 0.02788753 32.69242409 0.02849124 36.47342587 0.0296793 C43.63805004 0.03279258 50.80265904 0.04100594 57.96727651 0.05102879 C66.12191876 0.06219001 74.27656171 0.0677004 82.43120968 0.07272422 C99.21035107 0.08318855 115.98947717 0.10078794 132.76860714 0.12304783 C132.43860714 0.78304783 132.10860714 1.44304783 131.76860714 2.12304783 C88.20860714 2.12304783 44.64860714 2.12304783 -0.23139286 2.12304783 C-5.18139286 11.03304783 -5.18139286 11.03304783 -10.23139286 20.12304783 C-10.56139286 19.46304783 -10.89139286 18.80304783 -11.23139286 18.12304783 C-10.62641239 16.35131931 -10.62641239 16.35131931 -9.61420536 14.24414158 C-9.0747327 13.11008884 -9.0747327 13.11008884 -8.52436161 11.95312595 C-8.13893192 11.16357517 -7.75350224 10.37402439 -7.35639286 9.56054783 C-6.97869755 8.76712986 -6.60100224 7.97371189 -6.21186161 7.15625095 C-2.85285172 0.15731753 -2.85285172 0.15731753 0 0 Z " fill="#A868D4" transform="translate(495.2313928604126,820.8769521713257)"/>
<path d="M0 0 C8.61481669 -0.02322081 17.22962019 -0.04096462 25.84446049 -0.05181217 C29.84513013 -0.05701974 33.84577827 -0.0640786 37.84643555 -0.07543945 C41.71084745 -0.08634411 45.57523874 -0.09229285 49.43966484 -0.09487724 C50.91036745 -0.09671787 52.38106899 -0.10031207 53.85176277 -0.10573006 C55.91951009 -0.11304121 57.98717338 -0.11398672 60.05493164 -0.11352539 C61.22963516 -0.115746 62.40433868 -0.11796661 63.61463928 -0.12025452 C67.13748442 0.00488371 70.52178317 0.44081323 74 1 C74 1.33 74 1.66 74 2 C50.24 2 26.48 2 2 2 C2.66 3.65 3.32 5.3 4 7 C3.34 7 2.68 7 2 7 C0.5393715 4.35261084 0 3.10551666 0 0 Z " fill="#B46DE5" transform="translate(692,383)"/>
<path d="M0 0 C1.35568336 0.00333092 1.35568336 0.00333092 2.73875427 0.00672913 C3.75973709 0.00680466 4.78071991 0.00688019 5.8326416 0.00695801 C6.94304306 0.01211929 8.05344452 0.01728058 9.19749451 0.02259827 C10.89336952 0.02472069 10.89336952 0.02472069 12.62350464 0.02688599 C16.25105891 0.03250433 19.8785525 0.04505994 23.50608826 0.05775452 C25.95856133 0.06276715 28.41103536 0.06733047 30.86351013 0.07142639 C36.89022371 0.08247971 42.91690165 0.09923568 48.94358826 0.12025452 C48.94358826 0.45025452 48.94358826 0.78025452 48.94358826 1.12025452 C43.27790488 2.09084284 37.81364023 2.2514851 32.07249451 2.21791077 C30.68900063 2.21578835 30.68900063 2.21578835 29.27755737 2.21362305 C26.35370028 2.20805958 23.42992191 2.19551394 20.50608826 2.18275452 C18.51455291 2.17773479 16.52301635 2.17317271 14.53147888 2.16908264 C9.6687945 2.15895627 4.80627872 2.13937388 -0.05641174 2.12025452 C-5.00641174 11.03025452 -5.00641174 11.03025452 -10.05641174 20.12025452 C-10.38641174 19.46025452 -10.71641174 18.80025452 -11.05641174 18.12025452 C-10.45143127 16.348526 -10.45143127 16.348526 -9.43922424 14.24134827 C-8.89975159 13.10729553 -8.89975159 13.10729553 -8.34938049 11.95033264 C-7.96395081 11.16078186 -7.57852112 10.37123108 -7.18141174 9.55775452 C-6.80371643 8.76433655 -6.42602112 7.97091858 -6.03688049 7.15345764 C-2.67889367 0.15665592 -2.67889367 0.15665592 0 0 Z " fill="#AF6EDD" transform="translate(495.05641174316406,820.8797454833984)"/>
<path d="M0 0 C6.27 0 12.54 0 19 0 C19 0.33 19 0.66 19 1 C13.29309366 1.99250545 7.78591511 2.10477512 2 2 C2.66 3.65 3.32 5.3 4 7 C3.34 7 2.68 7 2 7 C0.5393715 4.35261084 0 3.10551666 0 0 Z " fill="#AA67D8" transform="translate(692,383)"/>
</svg>